<?xml version="1.0" standalone="no"?>
<!DOCTYPE svg PUBLIC "-//W3C//DTD SVG 20010904//EN"
 "http://www.w3.org/TR/2001/REC-SVG-20010904/DTD/svg10.dtd">
<svg version="1.0" xmlns="http://www.w3.org/2000/svg"
 width="180.000000pt" height="180.000000pt" viewBox="0 0 180.000000 180.000000"
 preserveAspectRatio="xMidYMid meet">

<g transform="translate(0.000000,180.000000) scale(0.100000,-0.100000)"
fill="#000000" stroke="none">
<path d="M808 1678 c-159 -17 -336 -105 -453 -224 -70 -72 -106 -123 -150
-217 -48 -100 -66 -175 -72 -293 -12 -224 68 -429 231 -589 304 -300 775 -299
1073 3 103 104 165 209 205 349 29 101 32 293 5 393 -59 226 -245 440 -455
525 -123 50 -253 68 -384 53z m187 -28 c284 -41 520 -239 612 -515 24 -71 27
-95 27 -220 1 -161 -13 -223 -75 -345 -102 -200 -274 -337 -490 -392 -69 -17
-103 -20 -199 -16 -200 9 -352 77 -495 222 -141 144 -205 288 -213 484 -6 159
15 262 84 392 108 205 320 356 547 389 86 12 121 12 202 1z"/>
<path d="M767 1602 c-21 -2 -27 -8 -23 -19 3 -8 6 -30 6 -49 0 -24 4 -34 16
-34 11 0 14 6 9 20 -4 11 -2 20 4 20 6 0 15 -9 21 -20 13 -25 35 -27 25 -2 -4
9 -7 29 -6 43 1 33 -15 46 -52 41z m33 -33 c0 -5 -7 -9 -15 -9 -15 0 -20 12
-9 23 8 8 24 -1 24 -14z"/>
<path d="M858 1560 c-14 -42 -14 -50 -2 -50 8 0 14 5 14 10 0 6 9 10 20 10 11
0 20 -4 20 -10 0 -5 7 -10 15 -10 12 0 12 7 -4 48 -25 64 -43 65 -63 2z m37 0
c3 -5 1 -10 -4 -10 -6 0 -11 5 -11 10 0 6 2 10 4 10 3 0 8 -4 11 -10z"/>
<path d="M965 1598 c-21 -68 -9 -122 13 -60 9 22 11 23 11 6 1 -32 14 -37 33
-12 12 15 16 17 12 6 -3 -10 -3 -26 1 -35 7 -17 8 -16 15 2 12 28 12 95 0 95
-5 0 -14 -9 -20 -20 -15 -28 -30 -25 -30 5 0 26 -27 36 -35 13z"/>
<path d="M647 1562 c-10 -10 -17 -28 -17 -39 0 -24 30 -53 55 -53 27 0 54 28
48 51 -6 20 -37 26 -48 9 -3 -5 1 -10 10 -10 9 0 15 -6 13 -12 -7 -19 -39 -16
-51 4 -13 20 7 48 35 48 10 0 16 5 13 10 -10 16 -40 12 -58 -8z"/>
<path d="M1125 1524 c-16 -43 -13 -74 5 -44 5 8 21 14 37 15 22 0 29 5 31 26
2 19 -3 28 -23 37 -14 7 -27 12 -29 12 -2 0 -11 -21 -21 -46z m53 -2 c2 -7 -3
-12 -12 -12 -9 0 -16 7 -16 16 0 17 22 14 28 -4z"/>
<path d="M1208 1485 c-44 -41 -46 -47 -15 -43 15 2 25 -4 32 -19 15 -34 22
-28 34 28 17 79 5 86 -51 34z m32 -21 c0 -8 -5 -12 -10 -9 -6 4 -8 11 -5 16 9
14 15 11 15 -7z"/>
<path d="M510 1490 c0 -21 24 -100 31 -100 4 0 9 9 12 20 3 14 14 20 31 20 36
0 33 13 -12 44 -40 27 -62 33 -62 16z m50 -41 c0 -5 -4 -9 -10 -9 -5 0 -10 7
-10 16 0 8 5 12 10 9 6 -3 10 -10 10 -16z"/>
<path d="M800 1459 c-93 -16 -214 -82 -289 -157 -109 -110 -161 -239 -161
-400 0 -153 54 -278 169 -392 115 -114 223 -160 376 -160 156 0 279 51 391
164 110 110 164 240 164 394 -1 248 -167 470 -400 536 -73 20 -182 27 -250 15z
m270 -51 c140 -51 238 -140 301 -273 99 -212 58 -447 -108 -610 -71 -70 -142
-110 -239 -135 -92 -24 -135 -25 -229 -5 -163 34 -291 135 -364 287 -102 213
-64 446 98 607 115 114 242 165 396 157 50 -3 105 -14 145 -28z"/>
<path d="M840 1395 c-14 -8 -34 -14 -46 -15 -12 0 -33 -11 -48 -25 -15 -14
-30 -25 -34 -26 -4 0 -16 -2 -28 -3 -24 -3 -94 -56 -94 -71 0 -6 -10 -15 -22
-20 -12 -6 -30 -26 -41 -45 -10 -19 -24 -40 -30 -45 -7 -6 -22 -25 -35 -43
-20 -28 -22 -39 -15 -70 6 -27 15 -38 31 -40 12 -2 22 -8 22 -13 0 -12 87 -12
94 0 10 16 46 0 46 -21 0 -11 5 -18 13 -15 6 2 12 12 12 23 0 12 7 19 20 19
16 0 21 -8 25 -45 3 -27 8 -40 13 -33 4 7 5 28 1 48 -4 22 -2 35 4 35 17 0 23
-16 24 -65 0 -25 5 -45 11 -45 6 0 7 19 3 50 -8 57 6 66 41 28 30 -34 33 -51
21 -119 -9 -51 -17 -68 -49 -100 -22 -22 -43 -39 -49 -39 -15 0 -12 68 3 73 6
2 10 6 7 9 -55 49 -144 118 -150 116 -15 -5 -139 -113 -139 -120 -1 -5 6 -8
15 -8 14 0 16 -11 12 -72 l-4 -72 57 -61 c32 -33 68 -67 82 -74 23 -12 29 -11
64 17 117 94 324 169 478 173 36 1 34 2 -17 10 -64 9 -104 27 -132 58 -19 21
-19 21 9 21 15 0 53 -12 84 -27 31 -14 92 -32 136 -39 44 -7 87 -15 96 -19 17
-6 40 42 54 114 l7 34 -51 -6 c-48 -6 -51 -5 -51 16 0 33 -28 67 -53 66 -21 0
-21 0 -2 -9 37 -14 49 -37 39 -72 -19 -66 -114 -57 -114 11 0 31 8 44 35 59
15 9 16 11 4 12 -29 0 -51 -35 -47 -76 2 -31 9 -42 38 -58 19 -11 55 -23 80
-27 l45 -6 -48 -2 c-35 -1 -57 5 -77 19 -44 32 -107 50 -170 50 l-58 0 -7 61
c-6 52 -4 65 12 87 32 43 42 38 45 -20 2 -31 7 -51 13 -48 6 3 8 27 7 53 -4
43 -2 48 15 45 12 -2 18 -12 18 -32 0 -16 6 -31 13 -33 8 -3 12 7 12 31 0 31
3 36 24 36 14 0 28 -5 32 -11 3 -6 17 -9 30 -6 13 2 24 0 24 -6 0 -11 90 0
105 14 5 5 17 9 27 9 21 0 36 46 19 63 -6 6 -11 19 -11 29 0 10 -9 23 -20 30
-11 7 -20 18 -20 25 0 7 -5 13 -11 13 -5 0 -15 14 -21 30 -6 20 -19 32 -36 37
-32 8 -47 21 -56 50 -7 23 -39 39 -55 29 -5 -4 -12 3 -16 13 -3 11 -16 23 -27
27 -12 4 -29 15 -37 26 -9 10 -27 19 -41 20 -14 1 -29 5 -35 9 -23 16 -100 19
-125 4z m44 -194 c4 -5 2 -20 -3 -33 l-9 -23 -11 28 c-6 16 -11 30 -11 33 0 8
29 4 34 -5z m71 -31 c-5 -29 -3 -40 6 -40 8 0 6 -7 -6 -20 -10 -11 -22 -20
-27 -20 -13 0 -10 108 5 113 25 11 29 6 22 -33z m-131 -22 c23 -32 20 -38 -13
-27 -21 7 -30 18 -33 39 -4 25 -2 27 13 19 10 -5 25 -19 33 -31z m193 -54
c-18 -34 -55 -70 -63 -61 -4 3 8 29 26 57 21 32 36 48 42 42 6 -6 4 -20 -5
-38z m-281 26 c8 0 14 -9 14 -20 0 -27 -12 -25 -41 7 -19 21 -20 25 -6 20 10
-4 25 -7 33 -7z m104 -59 c5 -11 10 -28 10 -37 0 -14 -10 -8 -40 21 -49 48
-54 73 -10 50 16 -8 34 -24 40 -34z m250 39 c0 -11 -41 -31 -49 -24 -2 2 -1
10 2 19 7 17 47 21 47 5z m34 -63 c-13 -5 -32 -6 -41 -3 -14 6 -14 8 2 20 13
10 24 10 41 2 l23 -11 -25 -8z m-380 9 c49 -21 53 -36 6 -22 -41 12 -75 36
-52 36 7 0 28 -6 46 -14z m-59 -16 c3 -5 -3 -10 -14 -10 -12 0 -21 5 -21 10 0
6 6 10 14 10 8 0 18 -4 21 -10z m5 -330 c0 -51 -3 -60 -17 -60 -30 0 -41 13
-45 50 -3 31 -6 35 -33 35 -26 0 -30 -4 -33 -31 -3 -27 -8 -33 -33 -36 l-29
-5 0 54 0 53 95 0 95 0 0 -60z"/>
<path d="M1216 872 c-4 -7 -17 -12 -29 -12 -16 0 -18 -3 -8 -9 11 -7 11 -9 0
-14 -8 -3 -3 -7 14 -12 15 -4 27 -12 27 -17 0 -14 25 13 34 37 4 11 4 16 0 12
-4 -4 -12 1 -19 10 -8 11 -14 13 -19 5z"/>
<path d="M1030 611 c-31 -10 -83 -32 -115 -49 -66 -35 -175 -117 -175 -131 0
-5 11 -11 25 -14 18 -3 30 2 40 16 29 41 123 109 210 153 97 48 100 53 15 25z"/>
<path d="M1168 586 c-74 -31 -152 -84 -208 -140 l-44 -46 32 0 c26 0 42 10 83
54 43 46 86 80 185 143 28 18 15 15 -48 -11z"/>
<path d="M1292 1437 c-31 -32 -41 -57 -23 -57 5 0 16 10 25 23 16 21 16 21 10
-20 -3 -27 -2 -43 4 -43 16 0 72 72 65 83 -3 5 -15 -1 -25 -14 l-20 -24 6 37
c2 21 1 40 -3 42 -4 3 -22 -9 -39 -27z"/>
<path d="M422 1428 c-19 -19 -15 -32 21 -66 32 -31 59 -34 34 -4 -10 13 -8 14
15 9 15 -4 30 -3 33 4 4 6 -2 13 -13 16 -11 3 -23 16 -26 29 -7 26 -43 33 -64
12z m38 -23 c0 -8 -4 -15 -10 -15 -5 0 -10 7 -10 15 0 8 5 15 10 15 6 0 10 -7
10 -15z"/>
<path d="M1362 1364 c-28 -20 -28 -58 0 -78 28 -20 37 -12 15 12 -22 24 -21
39 1 50 21 12 42 5 42 -14 0 -8 5 -14 10 -14 15 0 12 27 -6 44 -19 20 -34 20
-62 0z"/>
<path d="M354 1347 c-7 -20 47 -112 57 -96 4 7 5 17 2 21 -6 11 17 39 27 33 5
-3 11 -1 15 4 3 6 -15 19 -41 30 -55 25 -53 25 -60 8z m50 -38 c-6 -11 -24 -2
-24 11 0 5 7 7 15 4 8 -4 12 -10 9 -15z"/>
<path d="M1423 1279 c-39 -25 -43 -42 -9 -33 31 7 44 -13 20 -31 -33 -23 -8
-27 35 -5 45 22 56 46 17 36 -27 -7 -46 21 -21 30 18 7 20 24 3 24 -7 0 -28
-10 -45 -21z"/>
<path d="M301 1271 c-17 -32 -13 -39 30 -61 41 -21 67 -19 39 3 -8 7 -15 26
-15 42 0 23 -5 31 -22 33 -14 2 -26 -4 -32 -17z m39 -16 c0 -8 -4 -15 -9 -15
-13 0 -22 16 -14 24 11 11 23 6 23 -9z"/>
<path d="M340 1164 c0 -16 -11 -16 -67 1 -43 14 -23 -13 23 -31 39 -15 47 -15
55 -3 12 19 11 49 -1 49 -5 0 -10 -7 -10 -16z"/>
<path d="M1440 1175 c0 -3 9 -14 21 -26 16 -16 18 -23 8 -35 -24 -29 1 -25 40
7 57 45 54 59 -14 59 -30 0 -55 -2 -55 -5z m80 -19 c0 -2 -7 -6 -15 -10 -8 -3
-15 -1 -15 4 0 6 7 10 15 10 8 0 15 -2 15 -4z"/>
<path d="M1535 1100 c-10 -11 -26 -22 -36 -25 -27 -9 -24 -29 3 -22 11 3 37 0
55 -8 39 -17 43 2 4 21 -19 10 -20 13 -6 24 16 14 20 30 7 30 -5 0 -17 -9 -27
-20z"/>
<path d="M277 1100 c-27 -5 -52 -11 -55 -15 -8 -7 13 -26 61 -54 31 -19 37
-20 37 -7 0 9 -4 16 -10 16 -16 0 -11 19 10 37 20 17 27 34 13 32 -5 -1 -30
-5 -56 -9z m13 -30 c0 -5 -4 -10 -9 -10 -6 0 -13 5 -16 10 -3 6 1 10 9 10 9 0
16 -4 16 -10z"/>
<path d="M1490 1010 c0 -5 5 -10 11 -10 7 0 9 -11 6 -30 -8 -36 -7 -36 43 -10
26 13 40 27 40 40 0 17 -7 20 -50 20 -27 0 -50 -4 -50 -10z m65 -20 c-3 -5
-10 -10 -16 -10 -5 0 -9 5 -9 10 0 6 7 10 16 10 8 0 12 -4 9 -10z"/>
<path d="M205 1000 c-3 -5 6 -12 20 -16 33 -8 33 -34 0 -34 -14 0 -25 -4 -25
-9 0 -11 36 -21 78 -21 35 0 43 15 12 23 -11 3 -20 12 -20 21 0 9 8 16 20 16
24 0 27 15 4 24 -25 9 -82 7 -89 -4z"/>
<path d="M1565 930 c-16 -11 -38 -20 -47 -20 -10 0 -18 -4 -18 -10 0 -5 9 -10
20 -10 12 0 32 -7 46 -16 32 -22 46 -8 15 15 l-24 19 21 6 c12 4 22 14 22 22
0 18 1 18 -35 -6z"/>
<path d="M222 898 c-7 -7 -12 -27 -12 -45 0 -33 0 -33 50 -33 45 0 50 2 50 23
0 51 -56 87 -88 55z m61 -32 c7 -19 -1 -26 -30 -26 -16 0 -23 6 -23 20 0 14 7
20 24 20 13 0 26 -6 29 -14z"/>
<path d="M1497 863 c-3 -3 -1 -13 6 -24 9 -14 7 -22 -7 -38 -22 -24 -22 -24
44 -10 71 15 67 38 -13 68 -14 6 -27 7 -30 4z m53 -37 c0 -3 -4 -8 -10 -11 -5
-3 -10 -1 -10 4 0 6 5 11 10 11 6 0 10 -2 10 -4z"/>
<path d="M325 558 c-17 -25 -6 -35 22 -19 17 10 17 10 -1 11 -15 0 -16 3 -6
15 7 8 10 15 7 15 -3 0 -13 -10 -22 -22z"/>
<path d="M1460 562 c0 -6 -8 -9 -17 -6 -15 5 -15 3 1 -10 11 -9 23 -16 27 -16
16 0 18 18 4 30 -10 8 -15 9 -15 2z"/>
<path d="M349 520 c-19 -16 -20 -19 -5 -13 13 4 17 3 12 -5 -4 -7 -2 -12 4
-12 6 0 8 -5 4 -12 -4 -7 -3 -8 5 -4 6 4 9 12 6 17 -3 5 2 6 11 2 12 -4 15 -2
12 8 -3 8 -13 12 -23 11 -16 -3 -17 -1 -6 12 19 22 8 20 -20 -4z"/>
<path d="M1417 510 c5 -19 3 -22 -12 -16 -15 5 -16 4 -5 -9 15 -18 31 -20 28
-2 -2 6 4 11 14 9 17 -3 19 21 3 35 -4 4 -5 2 -1 -4 9 -16 -6 -17 -21 -2 -9 9
-10 6 -6 -11z"/>
<path d="M408 442 c-10 -12 -10 -14 0 -8 8 5 12 1 12 -12 0 -26 11 -34 27 -21
9 9 13 8 13 0 0 -6 5 -10 11 -8 6 1 14 -5 16 -13 3 -9 1 -11 -4 -5 -11 14 -33
17 -33 5 0 -10 21 -14 49 -11 7 2 11 -1 8 -6 -3 -5 3 -9 14 -9 10 0 19 1 19 2
0 1 -19 16 -42 33 -31 23 -45 28 -55 20 -10 -9 -13 -7 -13 9 0 12 8 22 18 24
14 3 13 5 -5 10 -14 4 -27 0 -35 -10z"/>
<path d="M1353 429 c13 -21 16 -22 36 -10 15 10 4 20 -29 26 -17 3 -18 1 -7
-16z"/>
<path d="M1325 390 c-4 -17 -11 -28 -16 -24 -5 3 -6 11 -2 17 4 7 0 6 -10 -2
-14 -11 -17 -11 -17 0 0 9 -3 10 -8 3 -4 -6 -15 -13 -24 -17 -15 -5 -16 -10
-6 -32 14 -31 22 -31 46 0 11 13 22 22 25 18 4 -3 9 2 13 11 3 9 14 16 23 16
13 0 13 2 2 9 -7 5 -10 14 -7 20 4 6 3 11 -3 11 -5 0 -12 -14 -16 -30z m-31
-32 c-3 -4 -9 -8 -15 -8 -5 0 -9 4 -9 8 0 5 7 9 15 9 8 0 12 -4 9 -9z m-14
-22 c0 -11 -19 -15 -25 -6 -3 5 1 10 9 10 9 0 16 -2 16 -4z"/>
<path d="M514 338 c-5 -7 10 -12 29 -9 4 0 7 -5 7 -11 0 -14 20 11 20 24 0 10
-50 6 -56 -4z"/>
<path d="M576 323 c-9 -24 -5 -40 4 -18 8 19 9 18 9 -4 1 -18 5 -22 21 -18 11
3 20 1 20 -5 0 -5 4 -7 9 -3 5 3 12 -3 15 -12 4 -13 17 -18 46 -20 33 -1 40 2
40 18 0 11 -7 19 -17 19 -15 0 -16 -2 -3 -10 13 -8 12 -10 -2 -10 -10 0 -18 7
-18 15 0 18 -26 20 -33 3 -3 -8 -6 -6 -6 4 -1 11 -6 15 -16 12 -9 -4 -15 -1
-15 7 0 8 -11 19 -24 25 -20 9 -26 9 -30 -3z m44 -17 c0 -3 -4 -8 -10 -11 -5
-3 -10 -1 -10 4 0 6 5 11 10 11 6 0 10 -2 10 -4z"/>
<path d="M1185 312 c-11 -2 -24 -10 -28 -18 -5 -10 -14 -11 -32 -4 -19 7 -23
6 -18 -6 3 -10 0 -12 -10 -8 -8 3 -18 0 -22 -5 -3 -6 -11 -9 -16 -5 -17 10
-59 -5 -59 -21 0 -8 7 -15 16 -15 8 0 12 5 9 10 -3 6 -1 10 4 10 6 0 11 -6 12
-12 0 -7 4 -4 9 7 l9 20 0 -20 c1 -11 5 -16 9 -10 4 6 13 10 20 11 28 2 32 5
32 21 0 13 3 14 12 5 17 -17 28 -15 28 6 0 15 2 15 11 2 9 -13 10 -12 5 3 -5
17 10 25 16 7 2 -5 8 -6 15 -2 18 11 1 29 -22 24z m-85 -52 c0 -5 -4 -10 -10
-10 -5 0 -10 5 -10 10 0 6 5 10 10 10 6 0 10 -4 10 -10z"/>
<path d="M752 255 c0 -16 2 -22 5 -12 2 9 2 23 0 30 -3 6 -5 -1 -5 -18z"/>
<path d="M800 245 l0 -26 22 21 c12 11 18 23 15 27 -4 3 -7 1 -7 -5 0 -7 -5
-12 -11 -12 -5 0 -7 5 -4 10 3 6 1 10 -4 10 -6 0 -11 -11 -11 -25z"/>
<path d="M850 245 c0 -20 5 -25 24 -25 19 0 22 4 18 25 -3 16 -11 25 -23 25
-14 0 -19 -7 -19 -25z m30 0 c0 -8 -4 -15 -10 -15 -5 0 -10 7 -10 15 0 8 5 15
10 15 6 0 10 -7 10 -15z"/>
<path d="M948 243 l6 -28 7 25 7 25 2 -25 c1 -23 2 -23 9 -5 5 12 4 23 -3 27
-23 15 -33 8 -28 -19z"/>
</g>
</svg>
